# xmcd
#
# Track frame offsets:
#	150
#	13093
#	28316
#	49538
#	65085
#	78925
#	96253
#	111459
#	128409
#	149218
#	166636
#	186507
#
# Disc length: 2700 seconds
#
# Revision: 1
# Processed by: cddbd v1.5.2PL0 Copyright (c) Steve Scherf et al.
# Submitted via: audiograbber 1.83.01
#
DISCID=aa0a8a0c
DTITLE=Jade Jackson - Wilderness
DYEAR=2019
DGENRE=Country
TTITLE0=Bottle It Up
TTITLE1=City Lights
TTITLE2=Don't Say That You Love Me
TTITLE3=Multiple Choice
TTITLE4=Now Or Never
TTITLE5=Tonight
TTITLE6=Dust
TTITLE7=Long Way Home
TTITLE8=Loneliness
TTITLE9=Wilderness
TTITLE10=Shiver
TTITLE11=Secret
EXTD=
EXTT0=
EXTT1=
EXTT2=
EXTT3=
EXTT4=
EXTT5=
EXTT6=
EXTT7=
EXTT8=
EXTT9=
EXTT10=
EXTT11=
PLAYORDER=
